<?xml version="1.0" encoding="UTF-8" standalone="no"?>
<!-- Created with Inkscape (http://www.inkscape.org/) -->

<svg
   xmlns:dc="http://purl.org/dc/elements/1.1/"
   xmlns:cc="http://creativecommons.org/ns#"
   xmlns:rdf="http://www.w3.org/1999/02/22-rdf-syntax-ns#"
   xmlns:svg="http://www.w3.org/2000/svg"
   xmlns="http://www.w3.org/2000/svg"
   xmlns:sodipodi="http://sodipodi.sourceforge.net/DTD/sodipodi-0.dtd"
   xmlns:inkscape="http://www.inkscape.org/namespaces/inkscape"
   width="319.99991"
   height="319.99991"
   id="svg7110"
   version="1.1"
   inkscape:version="0.48.4 r9939"
   sodipodi:docname="event-buttons.svg">
  <defs
     id="defs7112" />
  <sodipodi:namedview
     id="base"
     pagecolor="#ffffff"
     bordercolor="#666666"
     borderopacity="1.0"
     inkscape:pageopacity="0.0"
     inkscape:pageshadow="2"
     inkscape:zoom="0.73828125"
     inkscape:cx="205.37031"
     inkscape:cy="2.8570609"
     inkscape:document-units="px"
     inkscape:current-layer="layer1"
     showgrid="false"
     fit-margin-top="0"
     fit-margin-left="0"
     fit-margin-right="0"
     fit-margin-bottom="0"
     inkscape:window-width="944"
     inkscape:window-height="705"
     inkscape:window-x="414"
     inkscape:window-y="0"
     inkscape:window-maximized="0" />
  <metadata
     id="metadata7115">
    <rdf:RDF>
      <cc:Work
         rdf:about="">
        <dc:format>image/svg+xml</dc:format>
        <dc:type
           rdf:resource="http://purl.org/dc/dcmitype/StillImage" />
        <dc:title></dc:title>
      </cc:Work>
    </rdf:RDF>
  </metadata>
  <g
     inkscape:label="Layer 1"
     inkscape:groupmode="layer"
     id="layer1"
     transform="translate(111.42851,-215.21935)">
    <g
       id="g3767">
      <path
         id="path202-1"
         d="m -111.42851,221.46934 c 0,-3.45177 2.79825,-6.24999 6.25,-6.24999 l 307.4999,0 c 3.45125,0 6.25,2.79822 6.25,6.24999 l 0,307.49991 c 0,3.45124 -2.79875,6.24999 -6.25,6.24999 l -307.4999,0 c -3.45175,0 -6.25,-2.79875 -6.25,-6.24999 l 0,-307.49991"
         vector-effect="non-scaling-stroke"
         inkscape:connector-curvature="0"
         style="font-size:8.25000000000000000px;font-style:normal;font-weight:400;fill:#00a1ff;fill-opacity:1;fill-rule:evenodd;stroke:none;font-family:MS Shell Dlg 2" />
      <path
         id="path206-8"
         d="m 203.57139,317.71931 c 0,-49.70561 -69.39622,-89.99997 -154.999947,-89.99997 -85.604098,0 -154.999953,40.29436 -154.999953,89.99997 l 309.9999,0"
         vector-effect="non-scaling-stroke"
         inkscape:connector-curvature="0"
         style="font-size:8.25px;font-style:normal;font-weight:400;fill:#ffffff;fill-opacity:1;fill-rule:evenodd;stroke:none;font-family:MS Shell Dlg 2" />
      <path
         id="path208-7"
         d="m -106.42851,316.46931 c 0,-3.45175 2.79825,-6.24999 6.25,-6.24999 l 297.49991,0 c 3.45124,0 6.24999,2.79824 6.24999,6.24999 l 0,207.49994 c 0,3.45125 -2.79875,6.25 -6.24999,6.25 l -297.49991,0 c -3.45175,0 -6.25,-2.79875 -6.25,-6.25 l 0,-207.49994"
         vector-effect="non-scaling-stroke"
         inkscape:connector-curvature="0"
         style="font-size:8.25px;font-style:normal;font-weight:400;fill:#ffffff;fill-opacity:1;fill-rule:evenodd;stroke:none;font-family:MS Shell Dlg 2" />
      <path
         id="path216-7"
         d="m 48.571443,260.84433 -31.24999,53.74998 62.49998,0 -31.24999,-53.74998"
         vector-effect="none"
         inkscape:connector-curvature="0"
         style="font-size:8.25px;font-style:normal;font-weight:400;fill:#dcdcdc;fill-opacity:1;fill-rule:evenodd;stroke:#c0c0c0;stroke-width:6.24999809;stroke-linecap:round;stroke-linejoin:round;stroke-opacity:1;font-family:MS Shell Dlg 2" />
      <path
         id="path224-9"
         d="m -65.80352,375.21929 53.749982,31.24999 0,-62.49998 -53.749982,31.24999"
         vector-effect="none"
         inkscape:connector-curvature="0"
         style="font-size:8.25px;font-style:normal;font-weight:400;fill:#dcdcdc;fill-opacity:1;fill-rule:evenodd;stroke:#c0c0c0;stroke-width:6.24999809;stroke-linecap:round;stroke-linejoin:round;stroke-opacity:1;font-family:MS Shell Dlg 2" />
      <path
         id="path232-0"
         d="m 48.571443,489.59426 31.24999,-53.74998 -62.49998,0 31.24999,53.74998"
         vector-effect="none"
         inkscape:connector-curvature="0"
         style="font-size:8.25px;font-style:normal;font-weight:400;fill:#dcdcdc;fill-opacity:1;fill-rule:evenodd;stroke:#c0c0c0;stroke-width:6.24999809;stroke-linecap:round;stroke-linejoin:round;stroke-opacity:1;font-family:MS Shell Dlg 2" />
      <path
         id="path240-0"
         d="m 162.94641,375.21929 -53.74999,-31.24999 0,62.49998 53.74999,-31.24999"
         vector-effect="none"
         inkscape:connector-curvature="0"
         style="font-size:8.25px;font-style:normal;font-weight:400;fill:#dcdcdc;fill-opacity:1;fill-rule:evenodd;stroke:#c0c0c0;stroke-width:6.24999809;stroke-linecap:round;stroke-linejoin:round;stroke-opacity:1;font-family:MS Shell Dlg 2" />
      <path
         id="path248-6"
         d="m 79.821433,375.21929 c 0,17.25887 -13.991121,31.24999 -31.24999,31.24999 -17.25887,0 -31.24999,-13.99112 -31.24999,-31.24999 0,-17.25886 13.99112,-31.24999 31.24999,-31.24999 17.258869,0 31.24999,13.99113 31.24999,31.24999"
         vector-effect="none"
         inkscape:connector-curvature="0"
         style="font-size:8.25px;font-style:normal;font-weight:400;fill:#dcdcdc;fill-opacity:1;fill-rule:evenodd;stroke:#c0c0c0;stroke-width:6.24999809;stroke-linecap:round;stroke-linejoin:round;stroke-opacity:1;font-family:MS Shell Dlg 2" />
    </g>
  </g>
</svg>
